<svg version="1" xmlns="http://www.w3.org/2000/svg" width="1112" height="1112" viewBox="0 0 834.000000 834.000000"><path d="M520.7 82.9c-6 6.5-9.1 15.4-16.2 46.8-.5 2-.9 2.1-10.2 1.6-14.9-.8-69.9-.8-86.8 0-22.6 1.1-45.7 3-52.6 4.3-2.4.5-2.8 0-4.9-5.8-7.8-21.7-21.3-38.4-30.2-37.3-3.8.5-5.2 2.5-7.2 9.5-2.6 9.6-3.4 20.1-4.1 51.5-.3 13.2-.9 24.2-1.3 24.5-.4.3-3.6 1.9-7.2 3.5-15.2 6.9-38.1 20.7-53 31.8-51.4 38.5-90.7 95.2-108.3 156.2-2.9 9.9-3.9 12.3-6.1 13.5C110 396.2 17.8 455.2 3.4 465.7c-2.4 1.7-1.6 1.8 24.8 1.8 24 0 46 .8 53.8 2 1.4.2 6.5.6 11.5 1 4.9.4 9.2.8 9.5 1 .3.2 2.5.6 4.9 1 3.5.5 17.8 5 18.9 6 .4.4.9 3.6 1.7 11 .3 3.8 1 8.8 1.5 11 .5 2.2 1.1 5.9 1.5 8.2 1.7 11.7 11.4 45.5 16 55.8.8 1.6 2.6 5.9 4.1 9.5 7.5 18.4 22.3 43.5 36.7 62.5 37 48.6 90 85.7 149.2 104.5 18.3 5.8 32.4 9.2 43.3 10.5 4.9.6 5.3.5 4.8-1.2-3.3-10.7-16.6-63.8-19.1-76.5-.3-1.2 2.2-.1 8.5 3.7 10.4 6.3 28.3 15.8 39.4 20.8 6.4 2.8 8 4 8.1 5.9.2 1.2.6 8.1 1 15.3.3 7.1.8 14.8 1 17 .2 2.2.4 6.8.6 10.3.1 3.5.8 6.9 1.4 7.6 2 2 29.2.9 48.5-1.9 14.2-2.1 14-2 14-6.3 0-3.3 3.3-23.4 4.5-27.2.2-.8.7-3.1 1-5 .3-1.9 1.9-10.5 3.5-19s3.2-17.5 3.5-20c.3-2.5.8-5.2 1-6 .2-.8.7-4.4 1-7.9.6-6.3.6-6.5 8.1-14.4 8.7-9.2 17.8-20.9 22.9-29.4 2.2-3.6 3.5-5.1 3.5-3.8-.1 3.4-1.9 15.9-4.6 30.5-.9 4.6-1.7 9.6-1.9 11.1-.7 4.9-7.4 34.2-10.5 45.4-1.7 6-3.2 11.7-3.4 12.5-2.6 10.1-8.9 22.8-16.2 32.7-1.6 2.2-1.5 2.2 8.8-.6 72.5-19.6 135.4-65.1 175.3-126.6 2.1-3.3 4.7-7.2 5.7-8.8 3.4-5 16.6-31 20.4-40.2 10.4-25.2 17.9-53.7 20.9-79 .4-2.8.8-6.5 1.1-8.4.2-1.9.7-10.2 1-18.5.6-17.6 0-16.6 12.9-22.7 9.7-4.5 20.3-7.6 29.9-8.6 13.6-1.3 32.4-.6 44.8 1.7 2.9.6 6.6 1.3 8.2 1.6l3 .5-2-2.2c-25-28.7-63.9-63.8-93.6-84.2-4-2.8-7.4-5.4-7.6-5.9-.2-.4-.8-.8-1.3-.8s-3.5-1.7-6.7-3.9c-3.1-2.1-7.6-5-9.9-6.4-3.4-2.2-5-4.4-9.2-12.7-8.1-16-21.5-37.8-29.5-47.7-29.2-36.3-57.5-60.9-93.1-80.7-12.2-6.8-14.3-7.9-29.4-14.6-7.6-3.3-10.5-5.1-10.7-6.5-.2-1.1-.5-4.5-.8-7.5-.3-3-1.2-10.9-2.1-17.5-.8-6.6-1.7-13.6-2-15.5-.7-5.4-1.6-12-2.1-14.3-.2-1.2-.6-3.9-.9-6.2-.3-2.2-1-6.5-1.5-9.5s-1.2-7.1-1.5-9c-1.6-10.1-4.5-12.8-8.8-8.1zm125.8 199.7c1.7.8 5.9 5.2 9.5 9.7 3.6 4.5 7.3 9.1 8.2 10.2 12 14.5 28.8 38.8 35.7 51.5l4 7.5-3.4 7.8c-1.8 4.3-4.1 8.9-5 10.3-2.4 3.8-7.5 6.5-11.4 6.2-6.3-.5-8-5.2-9.6-27.3-.4-4.9-1.4-10.3-2.2-12-3-5.9-18.3-28.1-22.2-32.3-5.6-5.8-8-6.6-13.5-4.2-11.4 4.8-41.6 24.9-63.1 41.8-9.6 7.5-27.8 26.2-29.9 30.6-3.1 6.6-3.6 14.7-3 49.2.3 18.7.7 55.6.8 82l.3 48.1-11.1 3.1c-6.1 1.7-18.3 5-27.1 7.3s-25 6.5-36 9.5c-62.2 16.5-112 27.9-114.6 26.3-.6-.3-1.7-4-2.4-8-.8-4.1-1.6-8.8-1.9-10.4-2.3-13.1-5.8-33.5-6.2-36-.3-1.7-1.8-9.8-3.5-18.1-1.6-8.2-3.1-15.9-3.3-17-.2-1-1.2-5.5-2.1-9.9-6.7-32.4-14.5-70.1-19-93-3-14.9-5.7-28-6-29.1-.4-1.8-4.3-3.5-22.7-10.2-53.8-19.3-60.9-20.4-77.5-12.2-18.2 9-27.9 23.5-30.8 46-.4 3.5.1 6.3 2.5 12.8 3.7 10.1 3.7 11.6.4 13-3.5 1.6-20.4 2.5-23.7 1.3-7.5-2.9-7.3-19.6.4-39 7.4-18.6 32.4-60.9 41.9-70.9 7-7.4 7.5-7.5 34-5.7 4.1.2 12.2.7 18 1 5.8.4 13.4.8 17 1 3.6.2 7.6.4 9 .4 1.7.1 3.3 1.3 5 3.8 13 19.3 40.8 46.8 62.4 61.7 17.4 12.1 44 26.6 56.1 30.7 7.9 2.6 8 3 1.9 7.8-2.9 2.3-5.4 4.7-5.4 5.4 0 .6-.7.2-1.5-1-1.6-2.3-8.7-5.5-10.7-4.9-.7.3-2.5.7-4 1-3.7.8-7.7 5.3-8.4 9.4-1.5 7.6 3.4 14.6 10.8 15.9l3.3.5.1 7.6c0 4.3.3 9.1.7 10.9.6 2.8.1 4-4.3 9.7-2.7 3.6-5 6.7-5 7 0 .3 3-.8 6.8-2.4l6.7-3 2 2.7c3.1 4.2 11.6 12.2 13.7 12.9 1.2.4 1.7 1.2 1.4 2.7-2.5 11.8-6.8 32.8-7.3 35.2-.7 3.8-1.1 4.3 13.7-14.8l12.5-16.2 7.1-.7c6.6-.7 16.4-3.7 19-5.9.7-.6 2.5-.3 4.9.6 9.3 4 17-4.8 11.9-13.5-1.6-2.6-1.6-2.9 0-5.1.9-1.3 1.6-3.1 1.6-4.1 0-1.2.8-1.8 2.4-1.8 3.5 0 5.3-6.2 2.1-7.4-1.1-.4-1.5-2.1-1.5-6.3 0-3.2-.5-7.7-1-10.1l-1-4.3 8-10.4c4.4-5.7 8-10.5 8-10.8 0-.3-5 1.6-11 4.2l-11 4.6-5.6-5.2-5.5-5.2 2.1-9.8c1.2-5.4 2.4-10.1 2.8-10.4.4-.3 6-4.5 12.4-9.2 16.5-12.2 24.7-19.4 45.8-40.6 25.1-25.2 34.3-35.2 39.6-43.1 3.1-4.6 7.4-13.2 7.4-14.9 0-1.1 17-6.8 25.5-8.7.6-.1 3-.7 5.5-1.4 4.8-1.3 5.5-1.5 11.6-2.5 19.7-3.4 33.3-4.1 37.9-1.9zM545.3 290c-.1 3.6-.2 8.2-.2 10.2-.1 3.1-.9 4.4-5.8 9-10.7 9.9-37.7 37.3-45.8 46.3-4.4 4.9-10 11.2-12.5 13.9-2.5 2.8-7.4 8-10.9 11.6-5.1 5.2-6.3 6-5.8 4 .3-1.4.8-4.1 1.2-6l.8-3.5-3.7 4.5c-5 6.1-5 6-14.5 18.3-10.3 13.4-17.3 19.2-24.2 20.1-4.9.7-5.1.6-10.7-4.2-3.1-2.7-7.9-6.4-10.7-8.3-2.7-1.9-5.2-3.6-5.5-3.9-.3-.3-5-3.7-10.5-7.5-10.4-7.1-38.1-27.5-43-31.6-10.6-8.9-20.3-17.8-29-26.5l-10-10 .3-13.4c.2-7.4.4-13.6.6-13.7.7-.7 32.9-4.7 63.1-7.8 20-2 45.1-4 63.5-5 5.8-.3 12.8-.8 15.5-1 2.8-.2 14-.7 25-1.1 11-.3 20.1-.7 20.2-.8.1 0 12-.1 26.5-.1h26.3l-.2 6.5zm-96 126.2c-.7 4.2-1.4 4.9-4.1 4.2-3-.8-2.8-2.8.6-5.3 3.7-2.8 4.2-2.6 3.5 1.1zM418 504.7c0 .5-.5 1.5-1 2.3-.7 1.2-.9 1-.7-.8.1-1.9 1.7-3.3 1.7-1.5z"/><path d="M430.8 295.5c-.1.2-1.7.5-3.4.8-7.3 1.1-13 6.7-11.8 11.4.7 2.4 10.7 9.8 14.7 10.8 2.1.6 3.6.1 6.5-2.1 5.3-4.1 6.1-4.9 7.7-8.8 3.3-7.8 1-11.2-8.2-12-2.8-.2-5.3-.3-5.5-.1zM460.7 327.6c-.9 1.1-2.8 3.4-4.3 5.3-4.2 5.1-10.3 9.1-13.8 9.1-4.2 0-9.2-3.2-11.7-7.5-1.2-1.9-2.3-3.5-2.5-3.5-.2 0-2.4 2.2-5 5-10.6 11.3-23.3 10.5-36.8-2.6-6.4-6.2-8.8-6.2-5.6.1 1.1 2.2 2 4.7 2 5.6 0 3 6.1 20.2 9.7 27.7 8.1 16.5 15.4 22.3 29.8 23.7 2.2.2 8.1-1.8 9.9-3.3 2.8-2.6 5.4-8.4 5.9-13.1.6-6.3-1.9-21.1-4.7-27.4l-2.4-5.5 3.5 2c8.7 5.2 19.3.4 27.9-12.7 2.1-3.3.5-5.8-1.9-2.9z"/></svg>